<?xml version="1.0" encoding="UTF-8"?>
<svg width="20px" height="20px" viewBox="0 0 20 20" version="1.1" xmlns="http://www.w3.org/2000/svg" xmlns:xlink="http://www.w3.org/1999/xlink">
    <!-- Generator: Sketch 53.2 (72643) - https://sketchapp.com -->
    <title>close</title>
    <desc>Created with Sketch.</desc>
    <g id="Page-1" stroke="none" stroke-width="1" fill="none" fill-rule="evenodd">
        <g id="375-2" transform="translate(-333.000000, -27.000000)">
            <g id="close" transform="translate(331.000000, 25.000000)">
                <rect id="Rectangle" x="0" y="0" width="24" height="24"></rect>
                <path d="M13.41,12 L21.71,3.71 C22.1021222,3.31787783 22.1021222,2.68212217 21.71,2.29 C21.3178778,1.89787783 20.6821222,1.89787783 20.29,2.29 L12,10.59 L3.71,2.29 C3.45634143,2.03634143 3.08662601,1.93727648 2.74012196,2.03012196 C2.39361791,2.12296744 2.12296744,2.39361791 2.03012196,2.74012196 C1.93727648,3.08662601 2.03634143,3.45634143 2.29,3.71 L10.59,12 L2.29,20.29 C2.10068735,20.4777666 1.99420168,20.7333625 1.99420168,21 C1.99420168,21.2666375 2.10068735,21.5222334 2.29,21.71 C2.4777666,21.8993127 2.73336246,22.0057983 3,22.0057983 C3.26663754,22.0057983 3.5222334,21.8993127 3.71,21.71 L12,13.41 L20.29,21.71 C20.4777666,21.8993127 20.7333625,22.0057983 21,22.0057983 C21.2666375,22.0057983 21.5222334,21.8993127 21.71,21.71 C21.8993127,21.5222334 22.0057983,21.2666375 22.0057983,21 C22.0057983,20.7333625 21.8993127,20.4777666 21.71,20.29 L13.41,12 Z" id="Path" fill="#202020" fill-rule="nonzero"></path>
            </g>
        </g>
    </g>
</svg>